<?xml version="1.0" encoding="UTF-8"?>
<svg width="514px" height="389px" viewBox="0 0 514 389" version="1.1" xmlns="http://www.w3.org/2000/svg" xmlns:xlink="http://www.w3.org/1999/xlink">
    <title>Group</title>
    <g id="Page-1" stroke="none" stroke-width="1" fill="none" fill-rule="evenodd">
        <g id="Artboard" transform="translate(-403.000000, -331.000000)">
            <g id="Group" transform="translate(403.704804, 331.000000)">
                <path d="M395.295196,1.13686838e-13 C459.912512,1.13686838e-13 512.295196,52.3826843 512.295196,117 L512.295196,117.427 L512.295196,117.427897 L511.590392,355.087231 C511.590392,365.532465 503.122857,374 492.677623,374 C457.43617,382.133204 431.815464,379.330713 415.815505,365.592528 C399.815545,351.854343 395.333428,328.809383 402.369153,296.457649 C402.369153,286.116867 394.070122,277.714428 383.769142,277.547414 L383.456384,277.54488 L359.815424,277.54488 C349.474642,277.54488 341.072203,285.843911 340.905189,296.144891 L340.902655,296.457649 C350.164349,335.544037 344.461863,361.391488 323.795196,374 C292.795196,392.912769 218.795196,392.912769 187.795196,374 C167.128529,361.391488 159.219553,335.544037 164.068268,296.457649 C164.068268,286.116867 155.769237,277.714428 145.468257,277.547414 L145.155499,277.54488 L121.514539,277.54488 C111.173757,277.54488 102.771318,285.843911 102.604304,296.144891 L102.60177,296.457649 C109.65665,331.148082 107.032538,354.193042 94.7294331,365.592528 C82.4263288,376.992015 57.1541073,379.794505 18.9127686,374 C8.46753495,374 1.13686838e-13,365.532465 1.13686838e-13,355.087231 L0.295195954,107.72544 L0.65692979,107.731584 C5.38140556,47.4470725 55.797372,1.13686838e-13 117.295196,1.13686838e-13 L395.295196,1.13686838e-13 Z" id="Path" fill="#979797"></path>
                <path d="M255.295196,80 C167.556956,80 100.295196,124.061848 100.295196,170.5 C100.295196,216.938152 167.556956,261 255.295196,261 C343.033436,261 410.295196,216.938152 410.295196,170.5 C410.295196,124.061848 343.033436,80 255.295196,80 Z" id="Path" fill="#FFFFFF" fill-rule="nonzero"></path>
                <path d="M255.584636,164.900463 C266.928045,164.900463 278.291534,165.525001 286.578868,166.776245 C290.296061,167.337477 293.389798,168.022906 295.574129,168.838146 C297.374212,169.509976 298.596697,170.224848 298.808788,171.115791 C299.950308,175.911026 299.568774,180.513134 298.019169,184.759083 C296.332889,189.379524 293.266707,193.577355 289.281828,197.150004 C280.825141,204.731862 268.235774,209.5 255.795196,209.5 C243.487405,209.5 231.392158,204.852631 223.101069,197.419241 C215.428919,190.540761 211.013804,181.266873 212.787774,171.085828 C212.941811,170.201792 214.120135,169.498934 215.852149,168.836738 C217.983369,168.021915 221.031701,167.337077 224.711166,166.776138 C232.918392,165.524934 244.241596,164.900463 255.584636,164.900463 Z" id="Oval" stroke="#979797" fill="#979797"></path>
                <ellipse id="Oval" stroke="#979797" fill="#979797" cx="187.795196" cy="135.5" rx="15" ry="32"></ellipse>
                <ellipse id="Oval" stroke="#979797" fill="#979797" cx="323.795196" cy="135.5" rx="15" ry="32"></ellipse>
            </g>
        </g>
    </g>
</svg>