<?xml version="1.0" encoding="UTF-8"?>
<svg width="300px" height="371px" viewBox="0 0 300 371" version="1.1" xmlns="http://www.w3.org/2000/svg" xmlns:xlink="http://www.w3.org/1999/xlink">
    <title>monoid-white</title>
    <defs>
        <radialGradient cx="50%" cy="0%" fx="50%" fy="0%" r="100%" id="radialGradient-1">
            <stop stop-color="#474747" offset="0%"></stop>
            <stop stop-color="#252525" offset="100%"></stop>
        </radialGradient>
    </defs>
    <g id="Page-1" stroke="none" stroke-width="1" fill="none" fill-rule="evenodd">
        <g id="logo-with-text" transform="translate(-190.000000, -39.000000)">
            <g id="monoid-white" transform="translate(190.000000, 39.000000)">
                <g id="logo">
                    <circle id="Oval" fill="#252525" cx="150" cy="150" r="150"></circle>
                    <circle id="Oval" fill="#FFFFFF" cx="150" cy="150" r="130"></circle>
                    <circle id="Oval" fill="url(#radialGradient-1)" cx="150" cy="150" r="121"></circle>
                </g>
                <path d="M27.5,371 L27.5,341.851562 C27.5,340.247396 28.0742188,338.871094 29.2226562,337.722656 C30.3710938,336.574219 31.7473958,336 33.3515625,336 C34.9375,336 36.3092448,336.574219 37.4667969,337.722656 C38.624349,338.871094 39.203125,340.247396 39.203125,341.851562 L39.203125,341.851562 L39.203125,371 L50.8515625,371 L50.8515625,341.851562 C50.8515625,340.247396 51.4257812,338.871094 52.5742188,337.722656 C53.7226562,336.574219 55.0989583,336 56.703125,336 C58.2708333,336 59.6289062,336.578776 60.7773438,337.736328 C61.9257812,338.89388 62.5,340.265625 62.5,341.851562 L62.5,341.851562 L62.5,371 L74.203125,371 L74.203125,341.851562 C74.203125,338.625 73.0501302,335.867839 70.7441406,333.580078 C68.438151,331.292318 65.6901042,330.148438 62.5,330.148438 L62.5,330.148438 L56.703125,330.148438 C54.6979167,330.148438 52.9661458,330.490234 51.5078125,331.173828 C50.0494792,331.857422 48.8645833,332.891927 47.953125,334.277344 C46.0755208,331.52474 43.1588542,330.148438 39.203125,330.148438 L39.203125,330.148438 L33.3515625,330.148438 C31.6380208,330.148438 30.2936198,330.63151 29.3183594,331.597656 C28.343099,332.563802 27.7369792,334.03125 27.5,336 L27.5,336 L27.5,330.148438 L15.8515625,330.148438 L15.8515625,371 L27.5,371 Z M109.203125,371 C112.393229,371 115.132161,369.847005 117.419922,367.541016 C119.707682,365.235026 120.851562,362.505208 120.851562,359.351562 L120.851562,359.351562 L120.851562,341.851562 C120.851562,338.661458 119.707682,335.913411 117.419922,333.607422 C115.132161,331.301432 112.393229,330.148438 109.203125,330.148438 L109.203125,330.148438 L97.5,330.148438 C94.328125,330.148438 91.59375,331.292318 89.296875,333.580078 C87,335.867839 85.8515625,338.625 85.8515625,341.851562 L85.8515625,341.851562 L85.8515625,359.351562 C85.8515625,362.541667 86.9954427,365.280599 89.2832031,367.568359 C91.5709635,369.85612 94.3098958,371 97.5,371 L97.5,371 L109.203125,371 Z M103.351562,365.148438 C101.729167,365.148438 100.348307,364.574219 99.2089844,363.425781 C98.0696615,362.277344 97.5,360.919271 97.5,359.351562 L97.5,359.351562 L97.5,341.851562 C97.5,340.247396 98.0742188,338.871094 99.2226562,337.722656 C100.371094,336.574219 101.747396,336 103.351562,336 C104.9375,336 106.309245,336.574219 107.466797,337.722656 C108.624349,338.871094 109.203125,340.247396 109.203125,341.851562 L109.203125,341.851562 L109.203125,359.351562 C109.203125,360.919271 108.633464,362.277344 107.494141,363.425781 C106.354818,364.574219 104.973958,365.148438 103.351562,365.148438 Z M144.148438,371 L144.148438,341.851562 C144.148438,340.247396 144.722656,338.871094 145.871094,337.722656 C147.019531,336.574219 148.395833,336 150,336 C151.585938,336 152.957682,336.574219 154.115234,337.722656 C155.272786,338.871094 155.851562,340.247396 155.851562,341.851562 L155.851562,341.851562 L155.851562,371 L167.5,371 L167.5,341.851562 C167.5,338.661458 166.35612,335.913411 164.068359,333.607422 C161.780599,331.301432 159.041667,330.148438 155.851562,330.148438 L155.851562,330.148438 L150,330.148438 C148.286458,330.148438 146.942057,330.63151 145.966797,331.597656 C144.991536,332.563802 144.385417,334.03125 144.148438,336 L144.148438,336 L144.148438,330.148438 L132.5,330.148438 L132.5,371 L144.148438,371 Z M202.5,371 C205.690104,371 208.429036,369.847005 210.716797,367.541016 C213.004557,365.235026 214.148438,362.505208 214.148438,359.351562 L214.148438,359.351562 L214.148438,341.851562 C214.148438,338.661458 213.004557,335.913411 210.716797,333.607422 C208.429036,331.301432 205.690104,330.148438 202.5,330.148438 L202.5,330.148438 L190.796875,330.148438 C187.625,330.148438 184.890625,331.292318 182.59375,333.580078 C180.296875,335.867839 179.148438,338.625 179.148438,341.851562 L179.148438,341.851562 L179.148438,359.351562 C179.148438,362.541667 180.292318,365.280599 182.580078,367.568359 C184.867839,369.85612 187.606771,371 190.796875,371 L190.796875,371 L202.5,371 Z M196.648438,365.148438 C195.026042,365.148438 193.645182,364.574219 192.505859,363.425781 C191.366536,362.277344 190.796875,360.919271 190.796875,359.351562 L190.796875,359.351562 L190.796875,341.851562 C190.796875,340.247396 191.371094,338.871094 192.519531,337.722656 C193.667969,336.574219 195.044271,336 196.648438,336 C198.234375,336 199.60612,336.574219 200.763672,337.722656 C201.921224,338.871094 202.5,340.247396 202.5,341.851562 L202.5,341.851562 L202.5,359.351562 C202.5,360.919271 201.930339,362.277344 200.791016,363.425781 C199.651693,364.574219 198.270833,365.148438 196.648438,365.148438 Z M237.445312,324.351562 L237.445312,318.5 L225.796875,318.5 L225.796875,324.351562 L237.445312,324.351562 Z M237.445312,371 L237.445312,330.148438 L225.796875,330.148438 L225.796875,371 L237.445312,371 Z M266.648438,371 C270.09375,371 272.044271,369.049479 272.5,365.148438 L272.5,365.148438 L272.5,371 L284.148438,371 L284.148438,318.5 L272.5,318.5 L272.5,330.148438 L260.796875,330.148438 C257.625,330.148438 254.890625,331.292318 252.59375,333.580078 C250.296875,335.867839 249.148438,338.625 249.148438,341.851562 L249.148438,341.851562 L249.148438,359.351562 C249.148438,362.541667 250.292318,365.280599 252.580078,367.568359 C254.867839,369.85612 257.606771,371 260.796875,371 L260.796875,371 L266.648438,371 Z M266.648438,365.148438 C265.026042,365.148438 263.645182,364.574219 262.505859,363.425781 C261.366536,362.277344 260.796875,360.919271 260.796875,359.351562 L260.796875,359.351562 L260.796875,341.851562 C260.796875,340.247396 261.371094,338.871094 262.519531,337.722656 C263.667969,336.574219 265.044271,336 266.648438,336 L266.648438,336 L272.5,336 L272.5,359.351562 C272.5,360.919271 271.930339,362.277344 270.791016,363.425781 C269.651693,364.574219 268.270833,365.148438 266.648438,365.148438 Z" id="monoid" fill="#ECECEC" fill-rule="nonzero"></path>
            </g>
        </g>
    </g>
</svg>